<?xml version="1.0" encoding="UTF-8"?>
<svg id="Layer_1" xmlns="http://www.w3.org/2000/svg" version="1.1" viewBox="0 0 1801.7143 1400">
    <defs>
    <style>
      .st0 {
        fill: #c00;
      }

      .st1 {
        fill: #fff;
        stroke: #fff;
        stroke-miterlimit: 10;
      }
    </style>
  </defs>
  <path class="st0" d="M188.673,482.2275l-3.8623-8.6738c-.6875-1.581-2.5293-2.2822-4.124-1.581l-12.9062,5.746-51.1075-114.7763-6.3359-14.2276-26.2549,11.6983c-1.581.7012-2.2949,2.5703-1.5947,4.123l3.8076,8.5088c.6875,1.5674,2.543,2.2959,4.124,1.5674l12.041-5.3613,51.1065,114.791-12.2197,5.4434c-1.5948.6865-2.2813,2.5429-1.5948,4.1093l3.877,8.6875c.6865,1.5674,2.5293,2.2959,4.1094,1.5811l39.3408-17.5127c1.5801-.6865,2.3086-2.5293,1.5937-4.1231Z"/>
  <path class="st0" d="M184.1232,455.8633c1.7735,4,4.1651,7.4502,7.1758,10.3506,3.0098,2.9004,6.2949,5.1269,9.8691,6.707,3.5743,1.5537,7.3125,2.3926,11.2442,2.4746,3.9453.0967,7.7939-.7012,11.5605-2.3779,3.6563-1.6221,6.7627-3.9317,9.3467-6.9278,2.5703-2.9834,4.4678-6.3232,5.6904-10.0205,1.2237-3.7119,1.7598-7.6425,1.6221-11.8213-.1377-4.1787-1.1133-8.2617-2.9004-12.2617l-40.1787-90.2676c-1.7871-4-4.1924-7.4365-7.1885-10.3505-3.0107-2.9004-6.2822-5.127-9.8554-6.6944-3.5743-1.5527-7.3409-2.3916-11.2862-2.4883-3.9306-.082-7.7246.6739-11.3808,2.2959-3.7666,1.6768-6.9414,4.0274-9.5117,7.0108-2.5713,2.9961-4.4541,6.3359-5.6914,10.0342-1.2227,3.6836-1.7588,7.6289-1.6221,11.7939.1377,4.1787,1.1133,8.2608,2.9004,12.2744l40.206,90.2686ZM156.3986,346.791c.5498-1.9521,1.4844-3.6982,2.7901-5.2373,1.3056-1.54,2.873-2.7217,4.6875-3.5322,3.6562-1.6221,7.4365-1.499,11.3681.3847,3.917,1.8829,6.8447,4.9756,8.7832,9.3331l40.1651,90.2539c1.9375,4.3711,2.2812,8.5781,1.0302,12.6875-1.2363,4.1103-3.7109,6.9834-7.3535,8.6045-1.8281.8252-3.7392,1.1962-5.7597,1.1416-2.0069-.0694-3.917-.5088-5.7178-1.3614-1.8145-.8379-3.4912-2.0478-5.0176-3.6289-1.498-1.5801-2.7764-3.4502-3.7246-5.6084l-40.1924-90.2812c-.9629-2.1719-1.5127-4.3711-1.6914-6.5567-.123-2.1582.0557-4.2334.6328-6.1992Z"/>
  <path class="st0" d="M237.7726,503.8359c-10.5839,4.7286-16.8242,15.9307-18.9414,26.5147-9.2783-5.5391-21.7588-8.3711-32.3711-3.6563-17.3603,7.7256-25.1816,28.083-17.4433,45.4434,8.5771,19.2715,33.8838,36.4404,88.2617,44.5635,30.3643-45.8555,34.543-76.1367,25.9512-95.4082-7.752-17.3614-28.0821-25.169-45.4571-17.4571Z"/>
  <path class="st0" d="M347.2023,348.4268c3.1485,4.8798,7.0108,8.9619,11.6016,12.1787,4.5771,3.2578,9.7051,5.498,15.4228,6.7216,5.6905,1.2227,11.6563,1.1817,17.8829-.1513,6.2412-1.333,11.6425-3.7119,16.2207-7.1065,4.5908-3.3818,8.247-7.5048,10.9961-12.3027,2.7353-4.8379,4.5224-10.1025,5.3603-15.835.8115-5.7461.5918-11.6015-.6592-17.6084l-19.3261-90.914,12.8925-2.7354c1.7051-.3711,2.7637-2.0342,2.4063-3.7109l-3.2988-15.5469c-.3575-1.6904-2.0069-2.7627-3.712-2.4053l-47.6289,10.1309c-1.6904.3574-2.7763,2.0342-2.4052,3.7246l3.2851,15.5332c.3711,1.6904,2.0342,2.7627,3.7256,2.4053l13.6357-2.9004,19.3262,90.9277c.6318,2.9414.7969,5.8828.5361,8.8389-.2753,2.9277-1.0585,5.5801-2.3369,7.9717-1.2783,2.3926-3.0654,4.4404-5.2783,6.1855-2.2549,1.7598-5.0312,2.9971-8.3437,3.6983-3.9034.8379-7.3682.8242-10.337,0-2.9824-.8389-5.581-2.2686-7.7246-4.3164-2.1582-2.0342-3.9316-4.4815-5.3066-7.3955-1.3877-2.8858-2.4326-6.0069-3.1338-9.3057-.206-1.0029-.7559-3.9307-1.209-6.3086-.3164-1.6914-1.9658-2.7773-3.6426-2.4199l-14.9834,3.1758c-1.6904.3574-2.7763,2.0478-2.4462,3.7382l1.8144,9.251c1.292,6.0899,3.5049,11.5879,6.666,16.4815Z"/>
  <path class="st0" d="M410.3371,415.9316c-7.9316-7.3125-19.5606-12.7148-30.9004-10.2959-18.585,3.9454-30.4609,22.2139-26.5293,40.8116,4.3984,20.6455,25.5527,42.6943,77.0859,61.9384,39.2442-38.5293,49.5938-67.2861,45.209-87.9453-3.9443-18.5703-22.2265-30.4472-40.8105-26.5019-11.3545,2.4189-19.7666,12.0967-24.0547,21.9931Z"/>
  <path class="st0" d="M571.5871,250.0898h7.1894v13.8829c0,5.1132,1.1543,9.9384,3.4776,14.4335,2.2959,4.4942,5.333,8.4532,9.0859,11.8077,3.7393,3.3808,8,6.0478,12.7559,7.9716,4.7422,1.9385,9.5537,2.9004,14.4336,2.9004,4.6181,0,9.1816-.8379,13.7041-2.5293,4.4814-1.6767,8.5498-4.0273,12.1787-7.0234,1.8828,1.374,3.6562,2.46,5.3467,3.2715,1.6914.8105,3.5605,1.4433,5.6084,1.8555,2.0761.4394,4.3574.7421,6.8593.8798,1.7178.0821,3.67.1377,5.8692.1787,1.7187.0137,3.1201-1.3886,3.1201-3.1064v-12.7012c0-1.7324-1.3877-3.1201-3.1201-3.1201h-7.5596c-1.5127-.3711-3.1201-1.1269-4.8662-2.2549,1.7461-4.123,2.625-8.3154,2.625-12.5634v-88.3301c0-5.25-1.168-10.1162-3.4775-14.625-2.3233-4.4678-5.333-8.4258-9.086-11.8076-3.7519-3.3819-8-6.0205-12.7558-7.959-4.7422-1.9512-9.5528-2.9141-14.4327-2.9141s-9.6777.9629-14.4335,2.9004c-4.7559,1.9522-9.0166,4.5908-12.7559,7.959-3.752,3.3682-6.79,7.2988-9.0859,11.7939-2.3233,4.4952-3.4776,9.3467-3.4776,14.584v55.5879c-1.3467.082-4.6738.3164-7.2031.5225-1.7315.1367-3.1201,1.622-3.1201,3.3398v11.9453c0,1.7451,1.3886,3.1201,3.1201,3.1201ZM597.9103,175.6152c0-2.2539.6192-4.4394,1.8702-6.5429,1.25-2.1299,2.8447-4,4.7968-5.6221,1.9385-1.6074,4.1241-2.9277,6.5567-3.917,2.4326-.9902,4.8935-1.4844,7.3955-1.4844,2.3642,0,4.7832.4942,7.2295,1.4844,2.4336,1.0029,4.6601,2.3232,6.6533,3.9307,2.0068,1.622,3.5879,3.5058,4.7832,5.622,1.1826,2.1309,1.7734,4.3164,1.7734,6.5567v84.207c-.7422-.8799-1.5254-1.7598-2.3506-2.6533-.8105-.8799-1.663-1.8281-2.5293-2.832-2.5019-2.6387-5.0722-5.2647-7.6835-7.835-2.625-2.5703-5.4297-4.9346-8.4395-7.0791-2.9971-2.1436-6.1582-3.958-9.4717-5.4707-3.2988-1.5117-6.831-2.4736-10.584-2.8311v-55.5332ZM597.9103,250.4746c1.3887.2608,2.7491.6875,4.1241,1.3193,1.3886.6192,2.5703,1.4297,3.5595,2.4336l24.1934,23.6289c-3.6289,2.3643-7.3682,3.5459-11.2578,3.5459-2.502,0-4.9629-.4668-7.3955-1.457-2.4326-1.0029-4.6328-2.2812-6.5567-3.8486-1.9521-1.5401-3.5332-3.3819-4.7968-5.5254-1.251-2.1309-1.8702-4.3164-1.8702-6.5713v-13.5254Z"/>
  <path class="st0" d="M619.8488,445.8145c46.3916-29.5528,62.502-55.5186,62.502-76.6182,0-19.0108-15.3955-34.4053-34.4063-34.4053-11.6006,0-21.8691,7.711-28.0957,16.5088-6.2402-8.7978-16.4814-16.5088-28.0967-16.5088-19.0097,0-34.4189,15.4092-34.4189,34.4053.0137,21.0996,16.124,47.0791,62.5156,76.6182Z"/>
  <path class="st0" d="M929.0998,140.165l-34.7217-7.3945c-1.6904-.3574-3.3545.7285-3.7256,2.4053l-2.2812,10.7627c-.3438,1.6904.7285,3.3545,2.4189,3.7256l7.9043,1.6767-50.0351,50.5156,12.4267-58.5156,8.8653,1.8828c1.6914.3711,3.3408-.7148,3.7119-2.4052l2.2812-10.7491c.3574-1.705-.7148-3.3545-2.4053-3.7256l-34.2675-7.2851c-1.6914-.3574-3.3545.7148-3.7256,2.4053l-2.2813,10.7636c-.3574,1.6768.7149,3.3399,2.4053,3.711l8.7148,1.8554-14.3232,67.3682-4.9756,23.4229-4.9902,23.4218-1.292,6.1172-8.7149-1.8554c-1.6904-.3575-3.3535.7148-3.6972,2.4189l-2.2959,10.749c-.3711,1.6914.7148,3.3408,2.4053,3.7119l25.4023,5.4014,8.8662,1.8838c1.6904.3711,3.3399-.7149,3.7109-2.4053l.8389-3.9453,1.457-6.79c.3438-1.7051-.7285-3.3409-2.4189-3.7256l-4.1104-.8662-4.7558-1.0166,1.4023-6.5567,4.9756-23.4228.4951-2.2959,19.5049-19.6289,11.7803,60.0136-8.4404-1.8007c-1.6905-.3438-3.3536.7285-3.6973,2.4062l-.7832,3.6563-1.499,7.1064c-.3565,1.6904.7148,3.3535,2.4062,3.7246l4.3155.9072,30.3789,6.4473c1.7041.3711,3.3535-.7012,3.7109-2.4053l2.2822-10.75c.3711-1.6904-.7148-3.3535-2.4199-3.7109l-7.1748-1.5254-15.6982-79.4785,40.7285-40.9756,7.7529,1.6221c1.6768.3711,3.3535-.7012,3.7256-2.3916l2.2676-10.7627c.3437-1.6914-.7286-3.3545-2.4053-3.6983Z"/>
  <path class="st0" d="M871.3264,326.0488c-1.2784-.289-2.5567-.1377-3.835-.2207-4.9346-.3017-9.7871.5225-14.3369,2.4199-4.7285,1.9932-9.127,4.7696-12.7149,8.0684-4.2744-9.8828-12.7011-19.5596-24.041-21.9658-18.5976-3.958-36.8799,7.9043-40.8252,26.5019-4.3847,20.6465,5.9795,49.3887,45.21,87.9317,29.8418-11.1485,49.251-23.2442,61.3613-35.4639,4.0957-4.124,7.4219-8.248,9.8965-12.3711,2.8457-4.7422,4.8242-9.4707,5.8281-14.1172.4121-1.9931.5908-3.9726.6465-5.9521.3711-10.6797-4.3027-20.6455-12.1787-27.3399-4.207-3.5605-9.2373-6.2685-15.0107-7.4912Z"/>
  <path class="st1" d="M1797.4162,399.3955c-6.1719-16.0273-18.1445-28.6455-33.7324-35.5879l-202.3096-90.0752,3.8486-18.1308c7.3272-34.5704-14.8447-68.6729-49.374-75.9864l-203.6562-43.3261v-11.0518c0-35.3262-28.7286-64.082-64.083-64.082h-204.7149l-2.2129-10.4053c-6.2676-29.416-32.6318-50.75-62.7353-50.75-4.4532,0-8.9073.4678-13.2784,1.4023l-207.0927,44.0274-.9483-2.1582c-10.2685-23.0791-33.3056-37.9785-58.6806-37.9785-8.9893,0-17.7178,1.8554-25.9375,5.5117l-113.1553,50.3779h-5.7315c-20.5498,0-38.6806,9.9102-50.4199,25.0029l-57.7177,25.6915-159.6426,33.9238c-16.6875,3.5469-31.0381,13.4297-40.3711,27.8213-6.2822,9.6777-9.5264,20.6191-10.0625,31.7939l-197.3877,87.877c-32.2754,14.3642-46.8457,52.3154-32.4951,84.5908l406.79,913.6357c10.2549,23.0928,33.3066,38.0205,58.6807,38.0205,8.9765,0,17.6914-1.8828,25.9248-5.5537l299.1064-133.1679,6.5703-1.4297h37.5254l7.753,1.6494,456.9209,203.4502c8.2197,3.6699,16.9619,5.5117,25.9248,5.5117,25.374,0,48.4121-14.9141,58.666-37.9785l406.791-913.6358c6.9277-15.5605,7.3672-32.9765,1.2373-48.9902ZM1316.2609,1368.8252l-634.5019-282.5293c-8.7149-3.876-15.4082-10.9551-18.8721-19.959-3.4502-9.0166-3.2168-18.749.6592-27.4502l268.4131-602.873,138.3642-310.7901c1.7178-3.8349,4.2334-7.1201,7.0645-10.0615,5.1826-5.375,11.9316-8.8935,19.3818-10.2685,2.1445-.3985,4.2891-.9483,6.543-.9483,5.0029,0,9.8691,1.0313,14.4599,3.0791l10.0489,4.4815,624.4257,278.0205c8.7149,3.8759,15.4229,10.955,18.8868,19.9726,3.4365,8.9893,3.2168,18.749-.6602,27.4639l-406.79,913.6357c-7.753,17.4844-29.7461,26.0616-47.4229,18.2266ZM438.0344,1280.0693L31.2443,366.4199c-8.0556-18.0762.1094-39.3681,18.2129-47.4092l189.7178-84.4677,205.2099,965.5127c6.254,29.416,32.6319,50.7353,62.7217,50.7353,4.4395,0,8.9209-.4541,13.2783-1.3887l143.2022-30.4462-178.1025,79.3125c-17.6905,7.9033-39.67-.7012-47.4502-18.1993ZM268.0549,190.8457c.3437-.6318.5908-1.3057.9892-1.9102,5.251-8.083,13.2783-13.622,22.626-15.6152l197.8418-42.0488v994.0898c0,35.3262,28.7422,64.0821,64.082,64.0821h113.5537l-152.6181,32.4541c-19.1065,4.0957-38.585-8.7696-42.6123-27.6973L265.4572,222.832l-1.457-6.8867c-.5362-2.5019-.7422-5.0312-.7422-7.5322.0137-6.1445,1.7041-12.124,4.7969-17.5674ZM729.3469,51.5195l-45.3604,9.6631h-55.4365l55.3945-24.6601c4.6055-2.0616,9.4717-3.0791,14.4883-3.0791,12.9619-.0137,24.5361,7.0927,30.9141,18.0761ZM1013.6359,56.6055l.9619,4.5498h-55.8623l-69.6767-14.8047,81.9648-17.4297c2.4473-.5215,4.9492-.7832,7.3955-.7832,16.9073.0137,31.6973,11.9727,35.2168,28.4678ZM1510.048,207.1211c19.3819,4.1094,31.7803,23.2158,27.6563,42.5976l-2.6113,12.2745-213.004-94.8174,187.959,39.9453ZM549.6906,89.7187c1.292-.1513,2.5566-.3984,3.9033-.3984h205.9385l-4.124,19.3945-202.7901,954.0762c-3.5459,16.7149-.3574,33.8145,8.9903,48.2197,9.3467,14.3643,23.6972,24.2471,40.3711,27.794l105.7177,22.4883h-154.1035c-19.8066,0-35.9306-16.1241-35.9306-35.9317V125.2373c0-5.4023,1.292-10.4736,3.4228-15.0654.2608-.5225.5635-1.0166.8516-1.5254,4.3301-8.2334,11.7119-14.5156,20.6738-17.4297,2.2686-.7422,4.6328-1.2373,7.0791-1.4981ZM1041.6222,120.5225l-403.7939,906.9004c-6.9414,15.5878-7.3682,33.0039-1.2236,49.0175,6.1582,16,18.1172,28.6319,33.7187,35.5596l53.8281,23.9727-116.33-24.7422c-9.334-1.9795-17.3477-7.4776-22.5987-15.5596-5.25-8.083-7.0371-17.6777-5.0713-27.0244L788.0685,90.3926c.0967-.3858.2471-.7432.3438-1.0996,1.292-5.2793,3.7529-10.0352,7.0791-14.0762,6.6943-8.124,16.7695-13.292,27.7803-13.292,2.4873,0,4.9755.2754,7.4082.7969l216.6054,46.0351c-.9072,1.6631-1.8974,3.2715-2.6806,5.0166l-2.9825,6.7491ZM1284.0412,130.3096l-85.5811-18.1992-51.2304-22.8038h100.8799c19.8212,0,35.9316,16.1231,35.9316,35.9307v5.0723Z"/>
  <path class="st0" d="M1068.3156,313.8008l13.8145,6.1582c.6191.289,1.2509.1787,1.8701.0547.9482-.1924,1.8281-.6729,2.2539-1.6358l5.1406-11.5732c.7149-1.5811,0-3.4229-1.5664-4.124l-5.3887-2.3916,7.4092-10.9004,2.0479-2.9551,28.4404,12.6592-3.9727,16.2754-5.375-2.3916c-1.5527-.6875-3.4228,0-4.124,1.5947l-5.1543,11.5869c-.7285,1.5537,0,3.4092,1.5811,4.124l32.5088,14.4463c1.5527.7149,3.4082,0,4.123-1.5664l5.169-11.5879c.6875-1.581-.0274-3.4228-1.5948-4.124l-9.6631-4.3018,31.6973-133.8281c.3848-1.6631-.5635-3.6152-2.1309-4.3027l-15.7246-6.9961c-1.5254-.7012-3.6289-.1104-4.5771,1.3056l-58.5567,84.8379-10.997,15.9454-8.5225,12.371-3.5732-1.581-6.0899-2.708c-1.5947-.7002-3.4365,0-4.1513,1.581l-5.1407,11.5743c-.7148,1.581,0,3.4228,1.5948,4.1377l18.6523,8.3154ZM1141.8556,217.0176l-15.0654,63.3125-21.9101-9.7735,36.9755-53.539Z"/>
  <path class="st0" d="M1372.0139,1164.8389l-13.169-5.8555-6.9551-3.1064c-1.5664-.7149-3.4092,0-4.124,1.58l-5.168,11.5743c-.6875,1.5537.0274,3.3955,1.5948,4.124l5.3603,2.3916-9.4297,13.8418-1.9511-.8662-26.502-11.794,3.9316-16.3017,5.4151,2.3916c1.54.7285,3.4092,0,4.124-1.5811l5.1133-11.5459c.7422-1.5947,0-3.4228-1.5391-4.1514l-17.7871-7.9179-13.4844-5.9932-1.2509-.5635c-1.5401-.7011-3.4366,0-4.1241,1.5811l-5.1679,11.5459c-.6875,1.581.0547,3.4365,1.5937,4.124l2.9697,1.3477,6.7081,2.9961-4.042,17.0586-19.6836,83.2021-3.2442,13.7051-3.2158,13.7314-1.457,6.1309c-.3994,1.6904.5498,3.6015,2.1025,4.3164l15.6983,6.9824c1.58.7149,3.6562.1377,4.6455-1.2783l8.3847-12.165,11.0791-16.0411,39.2989-56.9619,19.3134-28,.9209.4258,8.7149,3.8623c1.5801.6875,3.4219,0,4.123-1.5801l5.1553-11.5742c.7002-1.581-.0283-3.4228-1.5811-4.124l-12.371-5.5117ZM1307.216,1195.5332l21.9385,9.7451-35.2852,51.1074-1.6904,2.4463.6045-2.584,14.4326-60.7148Z"/>
  <path class="st0" d="M1365.4982,638.8047c-16.9345-7.5469-35.3125-9.2236-53.3056-7.0928-4.7286.5498-9.4297,1.374-11.7119,2.1308-5.3603.9893-10.3916,2.1172-15.1201,3.2988-35.9863,9.1407-54.3916,23.3545-61.416,39.1202-.1367.2754-.1651.5088-.2744.7695-3.67,8.7978-3.4092,18.2549,0,26.4473,3.2578,7.8349,9.333,14.4882,17.7041,18.2265,8.4267,3.7393,17.9384,2.626,26.1718-.7148,2.1446-.8799,4.2891-1.7871,6.1856-2.9414.9902,4.9345,2.9834,9.9111,5.7734,14.3916,2.9414,4.7285,6.9551,8.7148,11.9864,11.3125.4394.248.7695.5781,1.2089.7978,17.3477,7.7246,37.6914-.083,45.4434-17.4297,8.3574-18.7353,4.4404-47.9589-23.6289-91.6562-.8242-1.2647-1.457-2.4473-2.3223-3.7529Z"/>
  <path class="st0" d="M1095.4367,441.499c4.9346-2.6943,8.9619-5.622,12.5635-8.6328,5.0166-4.2197,8.8379-8.6455,11.5732-13.2783.8389-1.4297,1.7871-2.8457,2.4336-4.3027,6.9141-15.5459,1.3194-33.4151-12.3848-42.543-1.6083-1.0713-3.2578-2.0752-5.0722-2.8994-3.3272-1.4571-6.8457-1.9932-10.3916-2.1172-4.7285-.2061-9.4854.5361-13.9248,2.0889-2.8321,1.0039-5.5674,2.2275-8.0137,3.6982-2.1172-10.584-8.3574-21.7871-18.9687-26.502-17.3477-7.7392-37.7188.0684-45.4434,17.4297-8.5781,19.2715-4.3994,49.5664,25.9512,95.4229,27.4638-4.1104,47.4502-10.543,61.6777-18.3643Z"/>
  <path class="st0" d="M1400.715,1015.0518c-4.1787.6191-7.8769,1.416-11.7119,2.1308-5.3603.9893-10.3916,2.1172-15.1201,3.2988-35.9863,9.1407-54.3916,23.3545-61.416,39.1202-.1367.2754-.1651.5088-.2744.7695-3.67,8.7978-3.4092,18.2549,0,26.4473,3.2578,7.8349,9.333,14.4882,17.7041,18.2265,8.4267,3.7393,17.9384,2.626,26.1718-.7148,2.1446-.8799,4.2891-1.7871,6.1856-2.9414.9902,4.9345,2.9834,9.9111,5.7734,14.3916,2.9414,4.7285,6.9551,8.7148,11.9864,11.3125.4394.248.7695.5781,1.2089.7978,17.3477,7.7246,37.6914-.083,45.4434-17.4297,8.3574-18.7353,4.4404-47.9589-23.6289-91.6562-.8242-1.2647-1.457-2.4473-2.3223-3.7529Z"/>
</svg>